<svg width="268" height="50" viewBox="0 0 268 50" fill="none" xmlns="http://www.w3.org/2000/svg">
<path d="M2.47044 49.232C1.89444 49.232 1.43044 49.056 1.07844 48.704C0.758443 48.384 0.598443 47.936 0.598443 47.36V24.704C0.630443 22.208 1.22244 19.968 2.37444 17.984C3.55844 15.968 5.14244 14.384 7.12644 13.232C9.14244 12.08 11.3984 11.504 13.8944 11.504C16.4544 11.504 18.7424 12.096 20.7584 13.28C22.7744 14.432 24.3584 16.016 25.5104 18.032C26.6944 20.048 27.2864 22.336 27.2864 24.896C27.2864 27.424 26.7104 29.696 25.5584 31.712C24.4384 33.728 22.9024 35.328 20.9504 36.512C18.9984 37.664 16.7904 38.24 14.3264 38.24C12.1824 38.24 10.2304 37.792 8.47044 36.896C6.74244 35.968 5.35044 34.752 4.29444 33.248V47.36C4.29444 47.936 4.11844 48.384 3.76644 48.704C3.44644 49.056 3.01444 49.232 2.47044 49.232ZM13.8944 34.88C15.7504 34.88 17.4144 34.448 18.8864 33.584C20.3584 32.72 21.5104 31.536 22.3424 30.032C23.2064 28.496 23.6384 26.784 23.6384 24.896C23.6384 22.976 23.2064 21.264 22.3424 19.76C21.5104 18.256 20.3584 17.072 18.8864 16.208C17.4144 15.312 15.7504 14.864 13.8944 14.864C12.0704 14.864 10.4224 15.312 8.95044 16.208C7.47844 17.072 6.32644 18.256 5.49444 19.76C4.66244 21.264 4.24644 22.976 4.24644 24.896C4.24644 26.784 4.66244 28.496 5.49444 30.032C6.32644 31.536 7.47844 32.72 8.95044 33.584C10.4224 34.448 12.0704 34.88 13.8944 34.88ZM35.6879 38C35.1119 38 34.6479 37.84 34.2959 37.52C33.9759 37.168 33.8159 36.72 33.8159 36.176V13.616C33.8159 13.04 33.9759 12.592 34.2959 12.272C34.6479 11.92 35.1119 11.744 35.6879 11.744C36.2319 11.744 36.6639 11.92 36.9839 12.272C37.3359 12.592 37.5119 13.04 37.5119 13.616V15.248C38.5359 14.064 39.7999 13.136 41.3039 12.464C42.8399 11.792 44.4879 11.456 46.2479 11.456C48.5199 11.456 50.5519 11.936 52.3439 12.896C54.1359 13.824 55.5439 15.2 56.5679 17.024C57.6239 18.848 58.1519 21.072 58.1519 23.696V36.176C58.1519 36.688 57.9759 37.12 57.6239 37.472C57.2719 37.824 56.8399 38 56.3279 38C55.7839 38 55.3359 37.824 54.9839 37.472C54.6319 37.12 54.4559 36.688 54.4559 36.176V23.696C54.4559 20.72 53.6239 18.528 51.9599 17.12C50.3279 15.68 48.2959 14.96 45.8639 14.96C44.2959 14.96 42.8719 15.264 41.5919 15.872C40.3439 16.48 39.3519 17.312 38.6159 18.368C37.8799 19.424 37.5119 20.624 37.5119 21.968V36.176C37.5119 36.72 37.3359 37.168 36.9839 37.52C36.6639 37.84 36.2319 38 35.6879 38ZM35.6879 27.296C35.1119 27.296 34.6479 27.12 34.2959 26.768C33.9759 26.416 33.8159 25.968 33.8159 25.424V2.384C33.8159 1.808 33.9759 1.36 34.2959 1.04C34.6479 0.687999 35.1119 0.511999 35.6879 0.511999C36.2319 0.511999 36.6639 0.687999 36.9839 1.04C37.3359 1.36 37.5119 1.808 37.5119 2.384V25.424C37.5119 25.968 37.3359 26.416 36.9839 26.768C36.6639 27.12 36.2319 27.296 35.6879 27.296ZM77.5323 38.24C74.9723 38.24 72.6843 37.664 70.6683 36.512C68.6523 35.36 67.0683 33.776 65.9163 31.76C64.7643 29.744 64.1883 27.456 64.1883 24.896C64.1883 22.304 64.7643 20 65.9163 17.984C67.0683 15.968 68.6523 14.384 70.6683 13.232C72.6843 12.08 74.9723 11.504 77.5323 11.504C80.0923 11.504 82.3643 12.08 84.3483 13.232C86.3643 14.384 87.9483 15.968 89.1003 17.984C90.2523 20 90.8443 22.304 90.8763 24.896C90.8763 27.456 90.2843 29.744 89.1003 31.76C87.9483 33.776 86.3643 35.36 84.3483 36.512C82.3643 37.664 80.0923 38.24 77.5323 38.24ZM77.5323 34.88C79.3883 34.88 81.0523 34.448 82.5243 33.584C83.9963 32.72 85.1483 31.536 85.9803 30.032C86.8123 28.528 87.2283 26.816 87.2283 24.896C87.2283 22.976 86.8123 21.264 85.9803 19.76C85.1483 18.224 83.9963 17.024 82.5243 16.16C81.0523 15.296 79.3883 14.864 77.5323 14.864C75.6763 14.864 74.0123 15.296 72.5403 16.16C71.0683 17.024 69.9003 18.224 69.0363 19.76C68.2043 21.264 67.7883 22.976 67.7883 24.896C67.7883 26.816 68.2043 28.528 69.0363 30.032C69.9003 31.536 71.0683 32.72 72.5403 33.584C74.0123 34.448 75.6763 34.88 77.5323 34.88ZM107.617 38C105.921 38 104.401 37.6 103.057 36.8C101.745 36 100.705 34.912 99.9367 33.536C99.1687 32.128 98.7847 30.528 98.7847 28.736V15.92H95.6647C95.1847 15.92 94.7847 15.776 94.4647 15.488C94.1447 15.168 93.9847 14.784 93.9847 14.336C93.9847 13.856 94.1447 13.472 94.4647 13.184C94.7847 12.864 95.1847 12.704 95.6647 12.704H98.7847V5.264C98.7847 4.72 98.9447 4.272 99.2647 3.92C99.6167 3.568 100.065 3.392 100.609 3.392C101.153 3.392 101.601 3.568 101.953 3.92C102.305 4.272 102.481 4.72 102.481 5.264V12.704H107.905C108.385 12.704 108.785 12.864 109.105 13.184C109.425 13.472 109.585 13.856 109.585 14.336C109.585 14.784 109.425 15.168 109.105 15.488C108.785 15.776 108.385 15.92 107.905 15.92H102.481V28.736C102.481 30.368 102.961 31.712 103.921 32.768C104.881 33.792 106.113 34.304 107.617 34.304H108.913C109.425 34.304 109.841 34.48 110.161 34.832C110.481 35.184 110.641 35.632 110.641 36.176C110.641 36.72 110.449 37.168 110.065 37.52C109.681 37.84 109.201 38 108.625 38H107.617ZM127.889 38.24C125.329 38.24 123.041 37.664 121.025 36.512C119.009 35.36 117.425 33.776 116.273 31.76C115.121 29.744 114.545 27.456 114.545 24.896C114.545 22.304 115.121 20 116.273 17.984C117.425 15.968 119.009 14.384 121.025 13.232C123.041 12.08 125.329 11.504 127.889 11.504C130.449 11.504 132.721 12.08 134.705 13.232C136.721 14.384 138.305 15.968 139.457 17.984C140.609 20 141.201 22.304 141.233 24.896C141.233 27.456 140.641 29.744 139.457 31.76C138.305 33.776 136.721 35.36 134.705 36.512C132.721 37.664 130.449 38.24 127.889 38.24ZM127.889 34.88C129.745 34.88 131.409 34.448 132.881 33.584C134.353 32.72 135.505 31.536 136.337 30.032C137.169 28.528 137.585 26.816 137.585 24.896C137.585 22.976 137.169 21.264 136.337 19.76C135.505 18.224 134.353 17.024 132.881 16.16C131.409 15.296 129.745 14.864 127.889 14.864C126.033 14.864 124.369 15.296 122.897 16.16C121.425 17.024 120.257 18.224 119.393 19.76C118.561 21.264 118.145 22.976 118.145 24.896C118.145 26.816 118.561 28.528 119.393 30.032C120.257 31.536 121.425 32.72 122.897 33.584C124.369 34.448 126.033 34.88 127.889 34.88ZM159.27 38.24C156.742 38.24 154.502 37.68 152.55 36.56C150.598 35.408 149.062 33.824 147.942 31.808C146.854 29.792 146.31 27.488 146.31 24.896C146.31 22.272 146.886 19.952 148.038 17.936C149.19 15.92 150.774 14.352 152.79 13.232C154.806 12.08 157.094 11.504 159.654 11.504C162.246 11.504 164.534 12.08 166.518 13.232C168.534 14.352 170.102 15.92 171.222 17.936C172.374 19.952 172.966 22.272 172.998 24.896V34.688C172.998 37.28 172.422 39.6 171.27 41.648C170.118 43.728 168.55 45.36 166.566 46.544C164.582 47.76 162.31 48.368 159.75 48.368C157.222 48.368 154.998 47.888 153.078 46.928C151.158 46 149.574 44.72 148.326 43.088C147.974 42.704 147.814 42.288 147.846 41.84C147.91 41.392 148.15 41.024 148.566 40.736C148.982 40.448 149.446 40.352 149.958 40.448C150.47 40.544 150.87 40.784 151.158 41.168C152.086 42.32 153.27 43.248 154.71 43.952C156.182 44.656 157.878 45.008 159.798 45.008C161.59 45.008 163.206 44.576 164.646 43.712C166.086 42.848 167.222 41.632 168.054 40.064C168.918 38.496 169.35 36.656 169.35 34.544V32.336C168.39 34.16 167.03 35.6 165.27 36.656C163.542 37.712 161.542 38.24 159.27 38.24ZM159.654 34.88C161.542 34.88 163.206 34.464 164.646 33.632C166.118 32.768 167.27 31.584 168.102 30.08C168.934 28.576 169.35 26.848 169.35 24.896C169.35 22.944 168.934 21.216 168.102 19.712C167.27 18.176 166.118 16.992 164.646 16.16C163.206 15.296 161.542 14.864 159.654 14.864C157.766 14.864 156.086 15.296 154.614 16.16C153.142 16.992 151.99 18.176 151.158 19.712C150.326 21.216 149.91 22.944 149.91 24.896C149.91 26.848 150.326 28.576 151.158 30.08C151.99 31.584 153.142 32.768 154.614 33.632C156.086 34.464 157.766 34.88 159.654 34.88ZM181.29 38C180.074 38 179.466 37.392 179.466 36.176V13.568C179.466 12.352 180.074 11.744 181.29 11.744C182.506 11.744 183.114 12.352 183.114 13.568V15.632C184.074 14.352 185.258 13.344 186.666 12.608C188.074 11.84 189.626 11.456 191.322 11.456C192.794 11.456 193.93 11.664 194.73 12.08C195.53 12.496 195.834 13.104 195.642 13.904C195.482 14.64 195.098 15.024 194.49 15.056C193.914 15.056 193.226 15.024 192.426 14.96C190.634 14.8 189.034 14.992 187.626 15.536C186.25 16.048 185.146 16.848 184.314 17.936C183.514 19.024 183.114 20.32 183.114 21.824V36.176C183.114 37.392 182.506 38 181.29 38ZM210.376 38.24C207.912 38.24 205.704 37.664 203.752 36.512C201.8 35.328 200.248 33.728 199.096 31.712C197.976 29.696 197.416 27.424 197.416 24.896C197.416 22.336 197.992 20.048 199.144 18.032C200.328 16.016 201.928 14.432 203.944 13.28C205.96 12.096 208.232 11.504 210.76 11.504C213.288 11.504 215.544 12.096 217.528 13.28C219.544 14.432 221.128 16.016 222.28 18.032C223.464 20.048 224.072 22.336 224.104 24.896V36.176C224.104 36.72 223.928 37.168 223.576 37.52C223.224 37.84 222.776 38 222.232 38C221.688 38 221.24 37.84 220.888 37.52C220.536 37.168 220.36 36.72 220.36 36.176V33.248C219.272 34.784 217.864 36 216.136 36.896C214.408 37.792 212.488 38.24 210.376 38.24ZM210.76 34.88C212.616 34.88 214.264 34.448 215.704 33.584C217.176 32.72 218.328 31.536 219.16 30.032C220.024 28.496 220.456 26.784 220.456 24.896C220.456 22.976 220.024 21.264 219.16 19.76C218.328 18.256 217.176 17.072 215.704 16.208C214.264 15.312 212.616 14.864 210.76 14.864C208.936 14.864 207.288 15.312 205.816 16.208C204.344 17.072 203.176 18.256 202.312 19.76C201.448 21.264 201.016 22.976 201.016 24.896C201.016 26.784 201.448 28.496 202.312 30.032C203.176 31.536 204.344 32.72 205.816 33.584C207.288 34.448 208.936 34.88 210.76 34.88ZM232.445 38C231.869 38 231.405 37.84 231.053 37.52C230.733 37.168 230.573 36.72 230.573 36.176V13.616C230.573 13.072 230.733 12.624 231.053 12.272C231.405 11.92 231.869 11.744 232.445 11.744C232.989 11.744 233.421 11.92 233.741 12.272C234.093 12.624 234.269 13.072 234.269 13.616V14.672C235.165 13.648 236.221 12.864 237.437 12.32C238.653 11.744 239.997 11.456 241.469 11.456C243.261 11.456 244.845 11.856 246.221 12.656C247.629 13.456 248.749 14.56 249.581 15.968C250.477 14.56 251.677 13.456 253.181 12.656C254.685 11.856 256.365 11.456 258.221 11.456C260.109 11.456 261.773 11.904 263.213 12.8C264.685 13.696 265.821 14.96 266.621 16.592C267.453 18.224 267.869 20.144 267.869 22.352V36.176C267.869 36.72 267.693 37.168 267.341 37.52C267.021 37.84 266.589 38 266.045 38C265.501 38 265.053 37.84 264.701 37.52C264.349 37.168 264.173 36.72 264.173 36.176V22.352C264.173 20.08 263.581 18.288 262.397 16.976C261.213 15.632 259.693 14.96 257.837 14.96C255.853 14.96 254.221 15.632 252.941 16.976C251.693 18.288 251.085 20.048 251.117 22.256V22.352V36.176C251.117 36.72 250.941 37.168 250.589 37.52C250.269 37.84 249.837 38 249.293 38C248.749 38 248.301 37.84 247.949 37.52C247.597 37.168 247.421 36.72 247.421 36.176V22.352C247.421 20.08 246.829 18.288 245.645 16.976C244.461 15.632 242.941 14.96 241.085 14.96C239.101 14.96 237.469 15.616 236.189 16.928C234.909 18.208 234.269 19.888 234.269 21.968V36.176C234.269 36.72 234.093 37.168 233.741 37.52C233.421 37.84 232.989 38 232.445 38Z" fill="black"/>
</svg>
